<?xml version="1.0" standalone="no"?>
<!DOCTYPE svg PUBLIC "-//W3C//DTD SVG 20010904//EN"
 "http://www.w3.org/TR/2001/REC-SVG-20010904/DTD/svg10.dtd">
<svg version="1.0" xmlns="http://www.w3.org/2000/svg"
 width="702.000000pt" height="702.000000pt" viewBox="0 0 702.000000 702.000000"
 preserveAspectRatio="xMidYMid meet">
<metadata>
Created by potrace 1.11, written by Peter Selinger 2001-2013
</metadata>
<g transform="translate(0.000000,702.000000) scale(0.100000,-0.100000)"
fill="#000000" stroke="none">
<path d="M1479 6586 c-2 -2 -24 -7 -49 -10 -298 -41 -584 -316 -645 -621 -18
-89 -20 -305 -19 -2060 1 -2106 -3 -1969 63 -2125 28 -67 99 -180 143 -230 60
-66 168 -146 252 -186 184 -85 54 -79 1616 -79 l1385 0 2 163 c3 161 3 162
-20 163 -12 0 -623 1 -1357 1 -1063 1 -1345 4 -1385 14 -174 46 -312 185 -357
359 -10 40 -12 441 -12 1960 l0 1910 21 70 c48 152 151 260 303 316 l65 24
1940 0 1940 0 65 -24 c155 -57 270 -183 311 -341 8 -33 12 -410 13 -1410 l1
-1365 158 0 c89 0 161 4 164 9 8 12 7 2672 0 2756 -8 82 -48 206 -93 289 -93
170 -246 302 -428 370 -141 52 -46 50 -2132 51 -1067 0 -1943 -2 -1945 -4z"/>
<path d="M2580 4954 c-197 -32 -339 -125 -420 -277 -51 -94 -68 -160 -76 -287
-7 -121 -7 -122 -46 -120 -18 1 -74 2 -124 1 l-91 -1 0 -185 c-1 -183 -1 -185
20 -186 12 0 70 -1 130 -1 l107 -1 0 -629 0 -628 243 2 242 3 1 616 c1 340 4
621 7 627 4 5 88 9 202 9 107 0 198 3 202 6 8 9 7 356 -1 364 -3 4 -99 7 -213
7 l-207 1 -1 53 c-1 66 19 145 45 182 55 78 219 96 327 36 l41 -24 31 82 c16
44 46 125 65 178 l35 98 -46 21 c-129 59 -312 79 -473 53z"/>
<path d="M4227 4334 c-1 -1 -31 -4 -67 -5 -88 -3 -200 -33 -285 -75 -75 -37
-175 -110 -175 -127 0 -6 -3 -7 -7 -4 -3 4 -6 47 -5 97 l0 90 -233 0 -233 0 1
-835 0 -835 243 0 243 0 0 453 c0 248 3 466 6 482 44 224 172 333 390 333 165
0 262 -63 311 -199 24 -71 27 -124 27 -601 l0 -468 244 0 243 0 0 524 c0 288
-5 548 -10 577 -16 101 -20 119 -36 167 -54 157 -162 282 -306 350 -88 43
-195 70 -291 75 -31 2 -58 3 -60 1z"/>
<path d="M5759 2498 c0 -2 -1 -204 -2 -449 l0 -446 -444 0 c-244 0 -446 -3
-449 -6 -8 -8 -9 -301 -1 -313 3 -5 194 -9 450 -9 l444 0 -1 -438 c-1 -242 2
-444 6 -450 9 -15 318 -17 319 -2 0 5 1 208 1 450 l1 440 441 -1 c243 0 446 1
451 3 11 3 12 309 1 320 -3 3 -205 7 -448 7 l-443 1 -2 430 c-1 237 -2 438 -2
448 -1 15 -16 17 -161 17 -88 0 -160 -1 -161 -2z"/>
<path d="M1227 1136 c-67 -24 -109 -91 -109 -173 0 -30 -3 -32 -41 -35 l-41
-3 1 -45 c1 -25 2 -48 2 -52 1 -5 18 -8 39 -8 l37 0 0 -192 0 -193 75 0 75 0
0 193 0 192 61 0 62 0 4 45 c2 24 2 49 0 55 -2 5 -33 10 -68 10 l-64 0 0 30
c0 55 59 87 110 60 16 -9 21 -3 38 48 l20 59 -27 9 c-40 16 -132 15 -174 0z"/>
<path d="M3590 785 l0 -355 73 0 73 0 -1 353 0 352 -72 3 -73 3 0 -356z"/>
<path d="M1952 930 c-22 -10 -43 -23 -46 -29 -12 -19 -26 -12 -26 14 0 24 -2
25 -70 25 l-70 0 0 -255 0 -255 73 0 74 0 0 123 c2 201 0 192 31 225 52 55
134 55 173 1 20 -29 22 -42 21 -190 l0 -159 74 0 74 0 1 73 c2 167 -2 274 -12
310 -13 49 -59 100 -107 119 -53 21 -141 20 -190 -2z"/>
<path d="M2880 933 c-19 -8 -43 -22 -52 -30 -17 -15 -18 -14 -18 10 0 27 -1
27 -70 27 l-70 0 0 -345 0 -345 74 0 74 0 -2 114 -1 114 25 -17 c47 -32 77
-40 141 -37 120 6 199 65 232 177 39 129 -18 271 -131 325 -48 23 -155 27
-202 7z m158 -149 c17 -21 32 -42 33 -48 8 -78 -5 -126 -42 -162 -25 -24 -38
-28 -85 -28 -52 0 -59 2 -90 37 -33 36 -38 53 -36 124 2 71 69 127 142 119 36
-4 51 -12 78 -42z"/>
<path d="M5172 940 c-123 -28 -180 -162 -106 -250 26 -30 81 -51 169 -65 82
-13 105 -23 105 -44 0 -31 -30 -46 -92 -48 -56 -1 -138 18 -165 39 -8 7 -19
-5 -37 -41 -15 -28 -26 -52 -26 -55 0 -2 26 -14 58 -27 46 -19 75 -24 157 -24
87 0 107 3 150 25 62 31 95 78 95 134 0 96 -43 126 -225 161 -16 3 -35 7 -41
8 -16 4 -44 28 -44 38 0 4 9 17 21 28 27 25 116 25 180 1 l47 -17 24 52 24 52
-35 14 c-20 7 -43 15 -51 17 -30 8 -176 9 -208 2z"/>
<path d="M4135 763 c2 -155 4 -184 22 -223 37 -83 99 -119 198 -116 58 1 135
28 135 47 0 5 5 9 10 9 6 0 10 -11 10 -25 0 -26 1 -26 72 -23 l73 3 -1 250 0
250 -74 0 -74 0 -2 -135 c-1 -74 -2 -146 -3 -158 0 -13 -16 -39 -35 -58 -37
-37 -82 -45 -130 -23 -41 19 -51 60 -51 224 l0 150 -76 3 -75 3 1 -178z"/>
</g>
</svg>
